
<svg xmlns="http://www.w3.org/2000/svg" height="630" width="630">
<rect width="628" height="628" x="1" y="1" stroke="black" fill="white" stroke-width="1" />
<circle cx="315" cy="315" r="300" fill="white"/>
<circle cx="315" cy="315" r="270" fill="white"/>

<circle cx="315" cy="315" r="240" fill="black"/>
<circle cx="315" cy="315" r="210" fill="black"/>

<circle cx="315" cy="315" r="180" fill="blue"/>
<circle cx="315" cy="315" r="150" fill="blue"/>

<circle cx="315" cy="315" r="120" fill="red"/>
<circle cx="315" cy="315" r="90" fill="red"/>

<circle cx="315" cy="315" r="60" fill="yellow"/>
<circle cx="315" cy="315" r="30" fill="yellow"/>

<g stroke-width="2" fill="none">
  <circle cx="315" cy="315" r="300" stroke="black"/>
  <circle cx="315" cy="315" r="120" stroke="black"/>
  <circle cx="315" cy="315" r="60" stroke="black"/>
</g>

<g stroke-width="1" stroke="#000" fill="none">
  <circle cx="315" cy="315" r="270" stroke="black"/>
  <circle cx="315" cy="315" r="150" stroke="white"/>
  <circle cx="315" cy="315" r="90" stroke="black"/>
  <circle cx="315" cy="315" r="30" stroke="black"/>
  <circle cx="315" cy="315" r="15" stroke="black"/>
</g>


</svg>